<svg width="21" height="20" viewBox="0 0 21 20" fill="none" xmlns="http://www.w3.org/2000/svg">
<path opacity="0.9" d="M10.4974 6.66525C8.56931 6.66525 6.99588 8.16376 6.99588 10C6.99588 11.8362 8.56931 13.3348 10.4974 13.3348C12.4254 13.3348 13.9989 11.8362 13.9989 10C13.9989 8.16376 12.4254 6.66525 10.4974 6.66525ZM20.9992 10C20.9992 8.61907 21.0123 7.25064 20.9309 5.87221C20.8495 4.27113 20.466 2.85017 19.2366 1.67938C18.0047 0.506085 16.5153 0.14334 14.8342 0.065788C13.3842 -0.0117644 11.9473 0.000744113 10.5 0.000744113C9.05001 0.000744113 7.61317 -0.0117644 6.16582 0.065788C4.48468 0.14334 2.99268 0.508587 1.76335 1.67938C0.531389 2.85267 0.150507 4.27113 0.0690774 5.87221C-0.0123526 7.25314 0.000781318 8.62157 0.000781318 10C0.000781318 11.3784 -0.0123526 12.7494 0.0690774 14.1278C0.150507 15.7289 0.534016 17.1498 1.76335 18.3206C2.9953 19.4939 4.48468 19.8567 6.16582 19.9342C7.6158 20.0118 9.05264 19.9993 10.5 19.9993C11.95 19.9993 13.3868 20.0118 14.8342 19.9342C16.5153 19.8567 18.0073 19.4914 19.2366 18.3206C20.4686 17.1473 20.8495 15.7289 20.9309 14.1278C21.015 12.7494 20.9992 11.3809 20.9992 10ZM10.4974 15.131C7.51598 15.131 5.10985 12.8394 5.10985 10C5.10985 7.16058 7.51598 4.86903 10.4974 4.86903C13.4788 4.86903 15.8849 7.16058 15.8849 10C15.8849 12.8394 13.4788 15.131 10.4974 15.131ZM16.1055 5.8572C15.4094 5.8572 14.8473 5.32184 14.8473 4.65889C14.8473 3.99594 15.4094 3.46058 16.1055 3.46058C16.8016 3.46058 17.3637 3.99594 17.3637 4.65889C17.364 4.81631 17.3316 4.97222 17.2684 5.1177C17.2052 5.26317 17.1126 5.39535 16.9957 5.50666C16.8788 5.61798 16.74 5.70624 16.5873 5.76639C16.4345 5.82654 16.2708 5.8574 16.1055 5.8572Z" fill="#049FFB"/>
</svg>
