<svg width="358" height="140" viewBox="0 0 358 140" fill="none" xmlns="http://www.w3.org/2000/svg">
<path d="M96.8781 3.59999H51.6781L0.278125 89.6V111.8H64.8781V137H96.8781V111.8H113.078V85.2H96.8781V3.59999ZM33.4781 85.2L64.8781 30.8V85.2H33.4781ZM178 31.6C182 31.6 186 33.4 188.6 35.8C195.6 42 200.2 59 200.2 70.8C200.2 82.2 196 99 188.6 105.4C186 107.8 182 109.6 178 109.6C174 109.6 170 107.8 167.4 105.4C159.6 98.6 155.8 81.2 155.8 70.6C155.8 58.2 160.2 42 167.4 35.8C170 33.4 174 31.6 178 31.6ZM234.6 70.4C234.6 46.8 226.8 27.6 214.8 15.8C204.4 5.6 191 0.599992 178 0.599992C165 0.599992 151.6 5.6 141.2 15.8C129.2 27.6 121.4 46.8 121.4 70.4C121.4 93.8 129.2 113 141.2 124.8C151.6 135 165 140 178 140C191 140 204.4 135 214.8 124.8C226.8 113 234.6 93.8 234.6 70.4ZM341.8 3.59999H296.6L245.2 89.6V111.8H309.8V137H341.8V111.8H358V85.2H341.8V3.59999ZM278.4 85.2L309.8 30.8V85.2H278.4Z" fill="#333333"/>
</svg>
