<svg width="24" height="25" viewBox="0 0 24 25" fill="none" xmlns="http://www.w3.org/2000/svg">
<path fill-rule="evenodd" clip-rule="evenodd" d="M22.675 0.199951H1.325C0.593 0.199951 0 0.792951 0 1.52495V22.876C0 23.607 0.593 24.2 1.325 24.2H12.82V14.906H9.692V11.284H12.82V8.61295C12.82 5.51295 14.713 3.82495 17.479 3.82495C18.804 3.82495 19.942 3.92395 20.274 3.96795V7.20795L18.356 7.20895C16.852 7.20895 16.561 7.92395 16.561 8.97195V11.285H20.148L19.681 14.907H16.561V24.2H22.677C23.407 24.2 24 23.607 24 22.875V1.52495C24 0.792951 23.407 0.199951 22.675 0.199951Z" fill="#666666"/>
</svg>
